<svg width="640" height="640" viewBox="0 0 640 640" fill="none" xmlns="http://www.w3.org/2000/svg">
  <defs>
    <linearGradient id="bg" x1="88" y1="72" x2="532" y2="568" gradientUnits="userSpaceOnUse">
      <stop stop-color="#FFF7EE"/>
      <stop offset="0.48" stop-color="#F2DCC0"/>
      <stop offset="1" stop-color="#D2A97C"/>
    </linearGradient>
    <linearGradient id="rim" x1="140" y1="110" x2="490" y2="530" gradientUnits="userSpaceOnUse">
      <stop stop-color="#FFF8F1"/>
      <stop offset="0.4" stop-color="#F3D8BA"/>
      <stop offset="1" stop-color="#A25D29"/>
    </linearGradient>
    <linearGradient id="gold" x1="200" y1="170" x2="465" y2="464" gradientUnits="userSpaceOnUse">
      <stop stop-color="#FFF4D6"/>
      <stop offset="0.28" stop-color="#F5CD7A"/>
      <stop offset="0.56" stop-color="#D8893E"/>
      <stop offset="1" stop-color="#7C3913"/>
    </linearGradient>
    <linearGradient id="shadow" x1="198" y1="215" x2="451" y2="486" gradientUnits="userSpaceOnUse">
      <stop stop-color="#B56A34"/>
      <stop offset="1" stop-color="#4A1D0D"/>
    </linearGradient>
    <filter id="drop" x="80" y="72" width="488" height="520" filterUnits="userSpaceOnUse" color-interpolation-filters="sRGB">
      <feFlood flood-opacity="0" result="BackgroundImageFix"/>
      <feColorMatrix in="SourceAlpha" type="matrix" values="0 0 0 0 0 0 0 0 0 0 0 0 0 0 0 0 0 0 127 0" result="hardAlpha"/>
      <feOffset dy="18"/>
      <feGaussianBlur stdDeviation="20"/>
      <feColorMatrix type="matrix" values="0 0 0 0 0.298039 0 0 0 0 0.113725 0 0 0 0 0.0509804 0 0 0 0.26 0"/>
      <feBlend mode="normal" in2="BackgroundImageFix" result="effect1_dropShadow_1_1"/>
      <feBlend mode="normal" in="SourceGraphic" in2="effect1_dropShadow_1_1" result="shape"/>
    </filter>
  </defs>
  <rect x="88" y="72" width="464" height="496" rx="132" fill="url(#bg)"/>
  <rect x="104" y="88" width="432" height="464" rx="116" stroke="url(#rim)" stroke-width="8"/>
  <g filter="url(#drop)">
    <path d="M208 187H307V418C307 445.062 298.078 466.708 280.234 482.938C262.391 498.979 239.443 507 211.391 507C198.25 507 185.49 505.02 173.109 501.062V425.422C183.797 430.896 194.484 433.633 205.172 433.633C215.859 433.633 224.5 430.234 231.094 423.438C237.875 416.641 241.266 407.49 241.266 395.984V253.328H208V187Z" fill="url(#shadow)"/>
    <path d="M208 165H307V396C307 423.062 298.078 444.708 280.234 460.938C262.391 476.979 239.443 485 211.391 485C198.25 485 185.49 483.021 173.109 479.062V403.422C183.797 408.896 194.484 411.633 205.172 411.633C215.859 411.633 224.5 408.234 231.094 401.438C237.875 394.641 241.266 385.49 241.266 373.984V231.328H208V165Z" fill="url(#gold)"/>
    <path d="M342 165H408V280H478V165H544V485H478V346H408V485H342V165Z" fill="url(#shadow)"/>
    <path d="M322 145H388V260H458V145H524V465H458V326H388V465H322V145Z" fill="url(#gold)"/>
    <path d="M322 145H524V188L388 326H322V145Z" fill="url(#gold)" fill-opacity="0.16"/>
    <path d="M208 165H307V214H241.266V373.984C241.266 385.49 237.875 394.641 231.094 401.438C224.5 408.234 215.859 411.633 205.172 411.633C194.484 411.633 183.797 408.896 173.109 403.422V365.109C181.203 369.823 188.844 372.18 196.031 372.18C204.537 372.18 210.377 369.255 213.551 363.406C216.913 357.37 218.594 348.88 218.594 337.938V165H208Z" fill="white" fill-opacity="0.18"/>
    <path d="M322 145H388V260H458V145H524V181H482V294H364V181H322V145Z" fill="white" fill-opacity="0.18"/>
  </g>
  <path d="M162 138C223.117 90.2965 313.216 73.9223 393.253 94.7303C435.56 105.727 472.268 126.983 500.5 157" stroke="white" stroke-opacity="0.48" stroke-width="10" stroke-linecap="round"/>
</svg>
